{"title":"RAMMBOCK BERLIN UNDEAD (2011) aka Siege of the Dead","uid":6393395,"size":730761510,"categoryP":"video","categoryS":"movies","magnet":"?xt=urn:btih:cb2691b68416b120c247e2d7244b4c5d9d3afa9f&amp;dn=RAMMBOCK+BERLIN+UNDEAD+%282011%29+aka+Siege+of+the+Dead+&amp;tr=udp%3A%2F%2Ftracker.openbittorrent.com%3A80&amp;tr=udp%3A%2F%2Fopen.demonii.com%3A1337&amp;tr=udp%3A%2F%2Ftracker.coppersurfer.tk%3A6969&amp;tr=udp%3A%2F%2Fexodus.desync.com%3A6969","seeders":1,"leechers":0,"uploader":"jmto44","files":9,"time":1305431423,"description":"Title:  Rammbock (2010)\naka: Siege of The Dead: Rammbock (2010) (German DVD)\naka: RAMMBOCK: BERLIN UNDEAD (May 2011) (USA theatrical)\n\n[Currently in Release in USA @ AMC Theaters \\\\\\\\\\\\\\\\\\\\\\\\\\\\\\\\\\\\\\\\\\\\\\\\\\\\\\\\\\\\\\&quot;Bloody Disgusting Night Terrors\\\\\\\\\\\\\\\\\\\\\\\\\\\\\\\\\\\\\\\\\\\\\\\\\\\\\\\\\\\\\\&quot;\n monthly limited feature.\n Have only Updated and recompiled here into MKV format HD with English subtitles\n muxed in  for you convenience from files previously posted here @ TPB.\n Essentially still \\\\\\\\\\\\\\\\\\\\\\\\\\\\\\\\\\\\\\\\\\\\\\\\\\\\\\\\\\\\\\&quot;first gen\\\\\\\\\\\\\\\\\\\\\\\\\\\\\\\\\\\\\\\\\\\\\\\\\\\\\\\\\\\\\\&quot; Video &amp; Audio. a \\\\\\\\\\\\\\\\\\\\\\\\\\\\\\\\\\\\\\\\\\\\\\\\\\\\\\\\\\\\\\&quot;10/10\\\\\\\\\\\\\\\\\\\\\\\\\\\\\\\\\\\\\\\\\\\\\\\\\\\\\\\\\\\\\\&quot; by compare to original\n rip. \n ALL credit for film upload should be given to all original post-ers !!]\n\nThis Month\\\\\\\\\\\\\\\\\\\\\\\\\\\\\\\\\\\\\\\\\\\\\\\\\\\\\\\\\\\\\\'s Feature: RAMMBOCK: BERLIN UNDEAD\n\nAfter a virus outbreak transforms the majority of Berlin\\\\\\\\\\\\\\\\\\\\\\\\\\\\\\\\\\\\\\\\\\\\\\\\\\\\\\\\\\\\\\'s population into ravenous zombies, Michael braves the streets in a seemingly hopeless search for his ex-fiancÃƒÂ©e, Gabi.\n\nThis German horror flick described as a \\\\\\\\\\\\\\\\\\\\\\\\\\\\\\\\\\\\\\\\\\\\\\\\\\\\\\\\\\\\\\&quot;hide and seek with zombies,\\\\\\\\\\\\\\\\\\\\\\\\\\\\\\\\\\\\\\\\\\\\\\\\\\\\\\\\\\\\\\&quot; debuted at the 2010 Cannes Film Festival to rave reviews\n\n\nCountry.......: Germany\nGenre.........: Horror\nDate release..: 19.01.2010 [World]\nDirector......: Marvin Kren\nWriters.......: Benjamin Hessler\nDuration......: 62 min.\nMore..........: http://www.imdb.com/title/tt1583356\nTrailer.......: http://www.imdb.com/video/wab/vi2076575257\n\n\nPilot :\nMichael comes to Berlin to visit his ex-girlfriend Gabi. \nHe could not choose a worse time. \nThe city just broke a strange epidemic that turns people in a maniacal killer. \nMichael anxiously discovers that Gabi is not in the apartment. \nInstead, it is just a young Harper, assisting a plumber, and....\n\nCast :\nSebastian Achilles \t... \tKai\nIngrid Beerbaum \t... \tStimme TV Moderatorin\nCarsten Behrendt \t... \tManni\nMelanie Berke \t... \tIna Muller\nSabrina Caramanna \t... \tZombie\nEmily Cox \t... \tAnita\nGlen Curtis \t... \tZombie\nMichael Fuith \t... \tMichael\nMila Gach \t... \tStimme Radiodurchsage\nHarald Geil \t... \tThorsten\nAnna Graczyk \t... \tGabi (as Anka Graczyk)\nJorn Hentschel \t... \tDominik\nEckehard Hoffmann \t... \tPolizeisprecher\nArno Kolker \t... \tHandwerker\nBrigitte Kren \t... \tFrau Bramkamp \n\n\n\nScreen :  &lt;a href=&quot;\nhttp://img822.imageshack.us/img822/7607/rammbock2010s4.jpg&quot; rel=&quot;nofollow&quot; target=&quot;_NEW&quot;&gt;\nhttp://img822.imageshack.us/img822/7607/rammbock2010s4.jpg&lt;/a&gt;  &lt;a href=&quot;\nhttp://img17.imageshack.us/img17/3291/rammbock2010s1.jpg&quot; rel=&quot;nofollow&quot; target=&quot;_NEW&quot;&gt;\nhttp://img17.imageshack.us/img17/3291/rammbock2010s1.jpg&lt;/a&gt;  &lt;a href=&quot;\nhttp://img171.imageshack.us/img171/2010/rammbock2010s2.jpg&quot; rel=&quot;nofollow&quot; target=&quot;_NEW&quot;&gt;\nhttp://img171.imageshack.us/img171/2010/rammbock2010s2.jpg&lt;/a&gt;  &lt;a href=&quot;\nhttp://img638.imageshack.us/img638/2696/rammbock2010s3.jpg&quot; rel=&quot;nofollow&quot; target=&quot;_NEW&quot;&gt;\nhttp://img638.imageshack.us/img638/2696/rammbock2010s3.jpg&lt;/a&gt;\n( also in torrent)\n\n\nData Technical :\n\n\nComplete name                    : Rammbock 2010 [DVDRip.XviD] [English].mkv\nFormat                           : Matroska\nFile size                        : 696 MiB\nDuration                         : 1h 1mn\nOverall bit rate                 : 1 582 Kbps\nEncoded date                     : UTC 2011-05-14 22:01:37\nWriting application              : mkvmerge v4.4.0 (\\\\\\\\\\\\\\\\\\\\\\\\\\\\\\\\\\\\\\\\\\\\\\\\\\\\\\\\\\\\\\'Die Wiederkehr\\\\\\\\\\\\\\\\\\\\\\\\\\\\\\\\\\\\\\\\\\\\\\\\\\\\\\\\\\\\\\') built on Oct 31 2010 21:52:48\nWriting library                  : libebml v1.0.0 + libmatroska v1.0.0\n\nVideo\nID                               : 1\nFormat                           : MPEG-4 Visual\nFormat profile                   : Advanced Simple@L5\nFormat settings, BVOP            : Yes\nFormat settings, QPel            : No\nFormat settings, GMC             : No warppoints\nFormat settings, Matrix          : Default (H.263)\nCodec ID                         : XVID\nCodec ID/Hint                    : XviD\nDuration                         : 1h 1mn\nBit rate                         : 1 359 Kbps\nWidth                            : 624 pixels\nHeight                           : 352 pixels\nDisplay aspect ratio             : 16:9\nFrame rate                       : 25.000 fps\nColor space                      : YUV\nChroma subsampling               : 4:2:0\nBit depth                        : 8 bits\nScan type                        : Progressive\nCompression mode                 : Lossy\nBits/(Pixel*Frame)               : 0.247\nStream size                      : 598 MiB (86%)\nWriting library                  : XviD 1.2.1 (UTC 2008-12-04)\n\nAudio\nID                               : 2\nAudio Language: German\nFormat                           : AC-3\nFormat/Info                      : Audio Coding 3\nMode extension                   : CM (complete main)\nMuxing mode                      : Header stripping\nCodec ID                         : A_AC3\nDuration                         : 1h 1mn\nBit rate mode                    : Constant\nBit rate                         : 192 Kbps\nChannel(s)                       : 2 channels\nChannel positions                : Front: L R\nSampling rate                    : 48.0 KHz\nBit depth                        : 16 bits\nCompression mode                 : Lossy\nStream size                      : 84.5 MiB (12%)\n\nText\n\nID                               : 3\nSubtitles Language.: English\nFormat                           : UTF-8\nCodec ID                         : S_TEXT/UTF8\nCodec ID/Info                    : UTF-8 Plain Text","torrent":{"xt":"urn:btih:cb2691b68416b120c247e2d7244b4c5d9d3afa9f","amp;dn":"RAMMBOCK+BERLIN+UNDEAD+%282011%29+aka+Siege+of+the+Dead+","amp;tr":["udp%3A%2F%2Ftracker.openbittorrent.com%3A80","udp%3A%2F%2Fopen.demonii.com%3A1337","udp%3A%2F%2Ftracker.coppersurfer.tk%3A6969","udp%3A%2F%2Fexodus.desync.com%3A6969"],"infoHash":"cb2691b68416b120c247e2d7244b4c5d9d3afa9f","infoHashBuffer":{"type":"Buffer","data":[203,38,145,182,132,22,177,32,194,71,226,215,36,75,76,93,157,58,250,159]},"announce":[],"urlList":[]}}